<svg xmlns="http://www.w3.org/2000/svg" width="80.228" height="94.211" viewBox="0 0 80.228 94.211">
  <g id="icon-modal-autorizar" transform="translate(-0.5 0)">
    <g id="surface1" transform="translate(0.5 0)">
      <path id="Trazado_1846" data-name="Trazado 1846" d="M76.491,62.914A47.531,47.531,0,0,1,65.107,80.648C59.39,86.23,51.9,90.666,42.858,93.83a6.806,6.806,0,0,1-2.162.382h-.081a6.9,6.9,0,0,1-1.327-.131,7.188,7.188,0,0,1-.912-.249C29.319,90.673,21.824,86.24,16.1,80.658A47.441,47.441,0,0,1,4.72,62.927C.122,50.449.384,36.7.594,25.657l0-.17c.042-.912.07-1.87.085-2.928a9.985,9.985,0,0,1,9.4-9.782C20.917,12.173,29.3,8.64,36.456,1.661l.063-.058a6.035,6.035,0,0,1,8.193,0l.061.058C51.934,8.64,60.314,12.173,71.146,12.777a9.985,9.985,0,0,1,9.4,9.782c.015,1.065.042,2.022.085,2.928l0,.072C80.845,36.626,81.105,50.4,76.491,62.914Zm0,0" transform="translate(-0.5 0)" fill="#04ea83"/>
      <path id="Trazado_1847" data-name="Trazado 1847" d="M254.743,62.917a47.531,47.531,0,0,1-11.384,17.734c-5.716,5.582-13.2,10.018-22.248,13.182a6.807,6.807,0,0,1-2.162.382V0a6.044,6.044,0,0,1,4.016,1.6l.061.058c7.161,6.979,15.541,10.511,26.373,11.116a9.985,9.985,0,0,1,9.4,9.782c.015,1.065.043,2.022.085,2.928l0,.072C259.1,36.629,259.358,50.4,254.743,62.917Zm0,0" transform="translate(-178.753 -0.003)" fill="#0ed578"/>
      <path id="Trazado_1848" data-name="Trazado 1848" d="M137.854,151.878a23.509,23.509,0,0,1-23.4,23.48h-.083a23.48,23.48,0,1,1,0-46.96h.083A23.509,23.509,0,0,1,137.854,151.878Zm0,0" transform="translate(-74.261 -104.772)" fill="#fff"/>
      <path id="Trazado_1849" data-name="Trazado 1849" d="M242.346,151.878a23.509,23.509,0,0,1-23.4,23.48V128.4A23.509,23.509,0,0,1,242.346,151.878Zm0,0" transform="translate(-178.753 -104.772)" fill="#e1ebf0"/>
      <path id="Trazado_1850" data-name="Trazado 1850" d="M176.671,216.7,166.1,227.275l-2.285,2.285a2.767,2.767,0,0,1-3.911,0l-4.913-4.915a2.764,2.764,0,1,1,3.909-3.909l2.96,2.96,10.906-10.906a2.764,2.764,0,0,1,3.909,3.909Zm0,0" transform="translate(-125.9 -172.974)" fill="#b1c0c2"/>
      <path id="Trazado_1851" data-name="Trazado 1851" d="M229.524,216.7l-10.575,10.576v-7.82l6.666-6.665a2.764,2.764,0,0,1,3.909,3.909Zm0,0" transform="translate(-178.753 -172.974)" fill="#97a2a4"/>
    </g>
  </g>
</svg>
